<svg xmlns="http://www.w3.org/2000/svg" xmlns:xlink="http://www.w3.org/1999/xlink" width="493" zoomAndPan="magnify" viewBox="0 0 369.75 162.749997" height="217" preserveAspectRatio="xMidYMid meet" version="1.0"><defs><clipPath id="e7be13a3bc"><path d="M 44 103 L 96 103 L 96 162.5 L 44 162.5 Z M 44 103 " clip-rule="nonzero"/></clipPath><clipPath id="b6a47e0e54"><path d="M 44 103 L 96 103 L 96 162.5 L 44 162.5 Z M 44 103 " clip-rule="nonzero"/></clipPath></defs><path fill="#ffd400" d="M 282.710938 12.382812 C 282.007812 11.933594 281.0625 11.933594 280.359375 12.382812 L 242.515625 36.753906 C 242.285156 36.898438 242.09375 37.089844 241.949219 37.308594 C 238.3125 43.035156 234.484375 48.738281 230.574219 54.300781 C 222.125 66.3125 212.917969 78.117188 203.203125 89.410156 C 203.019531 89.628906 202.65625 89.636719 202.445312 89.445312 L 163.179688 53.132812 C 163.132812 53.085938 163.097656 53.03125 163.070312 52.976562 L 150.199219 19.957031 C 150.042969 19.554688 150.5625 19.207031 150.957031 19.464844 L 181.890625 39.324219 C 181.945312 39.359375 181.992188 39.40625 182.027344 39.453125 L 203.367188 71.117188 C 203.546875 71.390625 203.996094 71.410156 204.195312 71.144531 C 204.824219 70.34375 205.453125 69.539062 206.074219 68.746094 C 206.183594 68.609375 206.191406 68.429688 206.089844 68.28125 L 185.191406 37.28125 C 185.054688 37.074219 184.871094 36.898438 184.652344 36.753906 L 146.917969 12.535156 C 146.214844 12.082031 145.257812 12.082031 144.558594 12.535156 C 143.855469 12.992188 143.574219 13.792969 143.855469 14.515625 L 159.480469 54.574219 C 159.570312 54.808594 159.726562 55.027344 159.917969 55.210938 L 201.570312 93.730469 C 201.972656 94.105469 202.527344 94.304688 203.121094 94.277344 C 203.703125 94.25 204.242188 93.996094 204.597656 93.59375 C 215.050781 81.589844 224.933594 68.992188 233.964844 56.160156 C 237.8125 50.691406 241.574219 45.066406 245.167969 39.453125 C 245.203125 39.398438 245.25 39.351562 245.304688 39.316406 L 276.449219 19.261719 C 276.839844 19.015625 277.359375 19.34375 277.214844 19.746094 L 264.726562 53.058594 C 264.707031 53.113281 264.671875 53.167969 264.617188 53.214844 L 251.046875 66.148438 C 237.089844 78.765625 223.027344 91.617188 209.226562 104.332031 C 198.816406 113.929688 188.28125 123.710938 177.910156 133.417969 C 177.390625 133.910156 177.226562 134.609375 177.488281 135.238281 L 187.945312 160.078125 C 188.234375 160.769531 188.984375 161.226562 189.820312 161.226562 L 210.574219 161.226562 C 211.222656 161.226562 211.851562 160.996094 212.308594 160.597656 L 213.429688 159.621094 C 213.621094 159.457031 213.921875 159.457031 214.121094 159.621094 L 215.445312 160.742188 C 215.808594 161.0625 216.308594 161.234375 216.828125 161.234375 L 238.121094 161.234375 C 238.949219 161.234375 239.707031 160.777344 239.988281 160.085938 L 250.316406 135.25 C 250.570312 134.628906 250.40625 133.9375 249.898438 133.453125 L 224.375 109.34375 C 223.976562 108.96875 223.308594 108.96875 222.910156 109.34375 C 222.507812 109.71875 221.980469 110.210938 221.550781 110.609375 C 221.1875 110.949219 221.175781 111.484375 221.550781 111.832031 L 245.941406 134.867188 C 246.070312 134.984375 246.105469 135.15625 246.042969 135.3125 L 236.84375 157.441406 C 236.773438 157.617188 236.589844 157.726562 236.378906 157.726562 L 217.832031 157.726562 C 217.703125 157.726562 217.578125 157.679688 217.484375 157.597656 L 217.003906 157.179688 C 216.800781 157.003906 216.800781 156.722656 217.003906 156.558594 L 224.304688 150.277344 C 224.878906 149.777344 225.058594 149.019531 224.75 148.363281 C 224.449219 147.699219 223.710938 147.261719 222.910156 147.261719 L 222.898438 147.261719 L 204.523438 147.28125 C 203.703125 147.28125 202.972656 147.71875 202.671875 148.382812 C 202.363281 149.039062 202.554688 149.804688 203.136719 150.296875 L 210.539062 156.578125 C 210.738281 156.75 210.738281 157.03125 210.539062 157.195312 L 210.101562 157.578125 C 210.011719 157.660156 209.882812 157.707031 209.753906 157.707031 L 191.554688 157.707031 C 191.34375 157.707031 191.160156 157.597656 191.089844 157.425781 L 181.765625 135.292969 C 181.699219 135.140625 181.738281 134.964844 181.863281 134.847656 C 191.898438 125.476562 202.0625 116.035156 212.117188 106.765625 C 225.898438 94.058594 239.960938 81.226562 253.933594 68.582031 L 267.90625 55.257812 C 268.109375 55.074219 268.253906 54.855469 268.335938 54.617188 L 283.429688 14.367188 C 283.703125 13.640625 283.414062 12.847656 282.710938 12.390625 Z M 210.675781 150.769531 L 216.792969 150.769531 C 217.238281 150.769531 217.457031 151.234375 217.140625 151.507812 L 214.105469 154.125 C 213.914062 154.289062 213.613281 154.289062 213.410156 154.125 L 210.339844 151.519531 C 210.019531 151.246094 210.238281 150.769531 210.683594 150.769531 Z M 210.675781 150.769531 " fill-opacity="1" fill-rule="nonzero"/><path fill="#000000" d="M 13.914062 149.839844 L 13.914062 104.019531 C 13.914062 103.746094 13.695312 103.527344 13.421875 103.527344 L 2.128906 103.527344 C 1.855469 103.527344 1.636719 103.746094 1.636719 104.019531 L 1.636719 160.695312 C 1.636719 160.96875 1.855469 161.1875 2.128906 161.1875 L 39.945312 161.1875 C 40.21875 161.1875 40.4375 160.96875 40.4375 160.695312 L 40.4375 150.824219 C 40.4375 150.550781 40.21875 150.332031 39.945312 150.332031 L 14.40625 150.332031 C 14.132812 150.332031 13.914062 150.113281 13.914062 149.839844 Z M 13.914062 149.839844 " fill-opacity="1" fill-rule="nonzero"/><g clip-path="url(#e7be13a3bc)"><path fill="#000000" d="M 83.378906 103.527344 C 83.105469 103.527344 82.886719 103.746094 82.886719 104.019531 L 82.886719 137.070312 C 82.886719 141.464844 81.902344 145.039062 79.953125 147.800781 C 78 150.550781 74.65625 151.9375 69.898438 151.9375 C 64.902344 151.9375 61.394531 150.550781 59.378906 147.800781 C 57.367188 145.039062 56.363281 141.164062 56.363281 136.1875 L 56.363281 104.019531 C 56.363281 103.746094 56.144531 103.527344 55.871094 103.527344 L 44.578125 103.527344 C 44.304688 103.527344 44.085938 103.746094 44.085938 104.019531 L 44.085938 137.699219 C 44.085938 142.449219 44.933594 146.667969 46.621094 150.378906 C 48.316406 154.089844 51.023438 157.023438 54.757812 159.183594 C 58.503906 161.351562 63.273438 162.4375 69.085938 162.4375 C 74.191406 162.4375 78.683594 161.589844 82.566406 159.902344 C 86.460938 158.207031 89.523438 155.511719 91.78125 151.800781 C 94.035156 148.089844 95.164062 143.304688 95.164062 137.425781 L 95.164062 104.019531 C 95.164062 103.746094 94.945312 103.527344 94.671875 103.527344 Z M 83.378906 103.527344 " fill-opacity="1" fill-rule="nonzero"/></g><path fill="#000000" d="M 156.417969 103.527344 C 156.234375 103.527344 156.0625 103.628906 155.980469 103.792969 L 142.734375 128.796875 C 140.601562 132.914062 139.078125 136.269531 138.148438 138.859375 C 137.996094 139.296875 137.394531 139.304688 137.230469 138.867188 C 136.773438 137.644531 136.21875 136.289062 135.570312 134.800781 C 134.6875 132.761719 133.730469 130.753906 132.726562 128.796875 L 119.691406 103.792969 C 119.609375 103.628906 119.4375 103.527344 119.253906 103.527344 L 107.050781 103.527344 C 106.777344 103.527344 106.558594 103.746094 106.558594 104.019531 L 106.558594 160.695312 C 106.558594 160.96875 106.777344 161.1875 107.050781 161.1875 L 118.351562 161.1875 C 118.625 161.1875 118.84375 160.96875 118.84375 160.695312 L 118.84375 127.902344 C 118.84375 127.363281 119.582031 127.21875 119.792969 127.710938 C 120.550781 129.46875 121.542969 131.558594 122.773438 133.972656 L 132.835938 153.804688 C 132.917969 153.96875 133.089844 154.078125 133.273438 154.078125 L 142.40625 154.078125 C 142.597656 154.078125 142.761719 153.96875 142.851562 153.804688 L 152.734375 133.972656 C 153.964844 131.59375 154.957031 129.515625 155.714844 127.746094 C 155.925781 127.246094 156.664062 127.402344 156.664062 127.9375 L 156.664062 160.695312 C 156.664062 160.96875 156.882812 161.1875 157.15625 161.1875 L 168.449219 161.1875 C 168.722656 161.1875 168.941406 160.96875 168.941406 160.695312 L 168.941406 104.019531 C 168.941406 103.746094 168.722656 103.527344 168.449219 103.527344 Z M 156.417969 103.527344 " fill-opacity="1" fill-rule="nonzero"/><path fill="#000000" d="M 288.269531 139.023438 C 288.089844 138.757812 288.207031 138.402344 288.5 138.285156 C 292.117188 136.851562 294.886719 134.746094 296.800781 131.96875 C 298.816406 129.03125 299.828125 125.550781 299.828125 121.511719 C 299.828125 118.066406 299 115.003906 297.339844 112.296875 C 295.671875 109.597656 293.136719 107.464844 289.730469 105.890625 C 286.320312 104.320312 282.0625 103.539062 276.960938 103.539062 L 258.136719 103.539062 C 257.863281 103.539062 257.644531 103.757812 257.644531 104.03125 L 257.644531 160.707031 C 257.644531 160.980469 257.863281 161.199219 258.136719 161.199219 L 269.4375 161.199219 C 269.710938 161.199219 269.933594 160.980469 269.933594 160.707031 L 269.933594 140.691406 C 269.933594 140.417969 270.152344 140.199219 270.425781 140.199219 L 274.527344 140.199219 C 274.691406 140.199219 274.84375 140.28125 274.9375 140.40625 L 289.117188 160.980469 C 289.210938 161.117188 289.363281 161.1875 289.527344 161.1875 L 303.402344 161.1875 L 303.402344 160.476562 L 288.28125 139.011719 Z M 283.886719 128.621094 C 281.917969 129.988281 279.109375 130.664062 275.472656 130.664062 L 270.425781 130.664062 C 270.152344 130.664062 269.933594 130.445312 269.933594 130.171875 L 269.933594 114.164062 C 269.933594 113.890625 270.152344 113.671875 270.425781 113.671875 L 276.839844 113.671875 C 279.984375 113.671875 282.445312 114.355469 284.207031 115.714844 C 285.957031 117.082031 286.839844 119.132812 286.839844 121.859375 C 286.839844 125.003906 285.855469 127.253906 283.886719 128.621094 Z M 283.886719 128.621094 " fill-opacity="1" fill-rule="nonzero"/><path fill="#000000" d="M 323.40625 150.378906 L 323.40625 137.390625 C 323.40625 137.117188 323.625 136.898438 323.898438 136.898438 L 344.226562 136.898438 C 344.472656 136.898438 344.683594 136.714844 344.71875 136.46875 L 346.03125 127.308594 C 346.078125 127.007812 345.839844 126.746094 345.539062 126.746094 L 323.910156 126.746094 C 323.636719 126.746094 323.417969 126.527344 323.417969 126.253906 L 323.417969 114.238281 C 323.417969 113.964844 323.636719 113.746094 323.910156 113.746094 L 349.175781 113.746094 C 349.449219 113.746094 349.667969 113.527344 349.667969 113.253906 L 349.667969 104.011719 C 349.667969 103.738281 349.449219 103.519531 349.175781 103.519531 L 311.632812 103.519531 C 311.359375 103.519531 311.140625 103.738281 311.140625 104.011719 L 311.140625 160.6875 C 311.140625 160.960938 311.359375 161.179688 311.632812 161.179688 L 349.621094 161.179688 C 349.894531 161.179688 350.113281 160.960938 350.113281 160.6875 L 350.113281 151.355469 C 350.113281 151.082031 349.894531 150.863281 349.621094 150.863281 L 323.910156 150.863281 C 323.636719 150.863281 323.417969 150.644531 323.417969 150.371094 Z M 323.40625 150.378906 " fill-opacity="1" fill-rule="nonzero"/><path fill="#ffd400" d="M 205.890625 68.664062 C 205.078125 69.511719 204.257812 70.351562 203.449219 71.199219 C 188.746094 62.839844 174.042969 54.492188 159.351562 46.132812 C 155.324219 35.988281 151.285156 25.84375 147.253906 15.699219 C 159.351562 23.109375 171.445312 30.519531 183.542969 37.929688 C 190.988281 48.175781 198.445312 58.417969 205.890625 68.664062 Z M 205.890625 68.664062 " fill-opacity="1" fill-rule="nonzero"/><path fill="#ffd400" d="M 204.140625 93.957031 C 226.382812 76.25 248.621094 58.539062 270.871094 40.828125 C 274.050781 32.441406 277.234375 24.058594 280.421875 15.664062 C 268.082031 23.0625 255.730469 30.464844 243.390625 37.867188 C 230.308594 56.558594 217.230469 75.253906 204.148438 93.949219 Z M 204.140625 93.957031 " fill-opacity="1" fill-rule="nonzero"/><path fill="#000000" d="M 282.710938 12.382812 C 282.007812 11.933594 281.0625 11.933594 280.359375 12.382812 L 242.515625 36.753906 C 242.285156 36.898438 242.09375 37.089844 241.949219 37.308594 C 238.3125 43.035156 234.484375 48.738281 230.574219 54.300781 C 222.125 66.3125 212.917969 78.117188 203.203125 89.410156 C 203.019531 89.628906 202.65625 89.636719 202.445312 89.445312 L 163.179688 53.132812 C 163.132812 53.085938 163.097656 53.03125 163.070312 52.976562 L 150.199219 19.957031 C 150.042969 19.554688 150.5625 19.207031 150.957031 19.464844 L 181.890625 39.324219 C 181.945312 39.359375 181.992188 39.40625 182.027344 39.453125 L 203.367188 71.117188 C 203.546875 71.390625 203.996094 71.410156 204.195312 71.144531 C 204.824219 70.34375 205.453125 69.539062 206.074219 68.746094 C 206.183594 68.609375 206.191406 68.429688 206.089844 68.28125 L 185.191406 37.28125 C 185.054688 37.074219 184.871094 36.898438 184.652344 36.753906 L 146.917969 12.535156 C 146.214844 12.082031 145.257812 12.082031 144.558594 12.535156 C 143.855469 12.992188 143.574219 13.792969 143.855469 14.515625 L 159.480469 54.574219 C 159.570312 54.808594 159.726562 55.027344 159.917969 55.210938 L 201.570312 93.730469 C 201.972656 94.105469 202.527344 94.304688 203.121094 94.277344 C 203.703125 94.25 204.242188 93.996094 204.597656 93.59375 C 215.050781 81.589844 224.933594 68.992188 233.964844 56.160156 C 237.8125 50.691406 241.574219 45.066406 245.167969 39.453125 C 245.203125 39.398438 245.25 39.351562 245.304688 39.316406 L 276.449219 19.261719 C 276.839844 19.015625 277.359375 19.34375 277.214844 19.746094 L 264.726562 53.058594 C 264.707031 53.113281 264.671875 53.167969 264.617188 53.214844 L 251.046875 66.148438 C 237.089844 78.765625 223.027344 91.617188 209.226562 104.332031 C 198.816406 113.929688 188.28125 123.710938 177.910156 133.417969 C 177.390625 133.910156 177.226562 134.609375 177.488281 135.238281 L 187.945312 160.078125 C 188.234375 160.769531 188.984375 161.226562 189.820312 161.226562 L 210.574219 161.226562 C 211.222656 161.226562 211.851562 160.996094 212.308594 160.597656 L 213.429688 159.621094 C 213.621094 159.457031 213.921875 159.457031 214.121094 159.621094 L 215.445312 160.742188 C 215.808594 161.0625 216.308594 161.234375 216.828125 161.234375 L 238.121094 161.234375 C 238.949219 161.234375 239.707031 160.777344 239.988281 160.085938 L 250.316406 135.25 C 250.570312 134.628906 250.40625 133.9375 249.898438 133.453125 L 224.375 109.34375 C 223.976562 108.96875 223.308594 108.96875 222.910156 109.34375 C 222.507812 109.71875 221.980469 110.210938 221.550781 110.609375 C 221.1875 110.949219 221.175781 111.484375 221.550781 111.832031 L 245.941406 134.867188 C 246.070312 134.984375 246.105469 135.15625 246.042969 135.3125 L 236.84375 157.441406 C 236.773438 157.617188 236.589844 157.726562 236.378906 157.726562 L 217.832031 157.726562 C 217.703125 157.726562 217.578125 157.679688 217.484375 157.597656 L 217.003906 157.179688 C 216.800781 157.003906 216.800781 156.722656 217.003906 156.558594 L 224.304688 150.277344 C 224.878906 149.777344 225.058594 149.019531 224.75 148.363281 C 224.449219 147.699219 223.710938 147.261719 222.910156 147.261719 L 222.898438 147.261719 L 204.523438 147.28125 C 203.703125 147.28125 202.972656 147.71875 202.671875 148.382812 C 202.363281 149.039062 202.554688 149.804688 203.136719 150.296875 L 210.539062 156.578125 C 210.738281 156.75 210.738281 157.03125 210.539062 157.195312 L 210.101562 157.578125 C 210.011719 157.660156 209.882812 157.707031 209.753906 157.707031 L 191.554688 157.707031 C 191.34375 157.707031 191.160156 157.597656 191.089844 157.425781 L 181.765625 135.292969 C 181.699219 135.140625 181.738281 134.964844 181.863281 134.847656 C 191.898438 125.476562 202.0625 116.035156 212.117188 106.765625 C 225.898438 94.058594 239.960938 81.226562 253.933594 68.582031 L 267.90625 55.257812 C 268.109375 55.074219 268.253906 54.855469 268.335938 54.617188 L 283.429688 14.367188 C 283.703125 13.640625 283.414062 12.847656 282.710938 12.390625 Z M 210.675781 150.769531 L 216.792969 150.769531 C 217.238281 150.769531 217.457031 151.234375 217.140625 151.507812 L 214.105469 154.125 C 213.914062 154.289062 213.613281 154.289062 213.410156 154.125 L 210.339844 151.519531 C 210.019531 151.246094 210.238281 150.769531 210.683594 150.769531 Z M 210.675781 150.769531 " fill-opacity="1" fill-rule="nonzero"/><path fill="#000000" d="M 13.914062 149.839844 L 13.914062 104.019531 C 13.914062 103.746094 13.695312 103.527344 13.421875 103.527344 L 2.128906 103.527344 C 1.855469 103.527344 1.636719 103.746094 1.636719 104.019531 L 1.636719 160.695312 C 1.636719 160.96875 1.855469 161.1875 2.128906 161.1875 L 39.945312 161.1875 C 40.21875 161.1875 40.4375 160.96875 40.4375 160.695312 L 40.4375 150.824219 C 40.4375 150.550781 40.21875 150.332031 39.945312 150.332031 L 14.40625 150.332031 C 14.132812 150.332031 13.914062 150.113281 13.914062 149.839844 Z M 13.914062 149.839844 " fill-opacity="1" fill-rule="nonzero"/><g clip-path="url(#b6a47e0e54)"><path fill="#000000" d="M 83.378906 103.527344 C 83.105469 103.527344 82.886719 103.746094 82.886719 104.019531 L 82.886719 137.070312 C 82.886719 141.464844 81.902344 145.039062 79.953125 147.800781 C 78 150.550781 74.65625 151.9375 69.898438 151.9375 C 64.902344 151.9375 61.394531 150.550781 59.378906 147.800781 C 57.367188 145.039062 56.363281 141.164062 56.363281 136.1875 L 56.363281 104.019531 C 56.363281 103.746094 56.144531 103.527344 55.871094 103.527344 L 44.578125 103.527344 C 44.304688 103.527344 44.085938 103.746094 44.085938 104.019531 L 44.085938 137.699219 C 44.085938 142.449219 44.933594 146.667969 46.621094 150.378906 C 48.316406 154.089844 51.023438 157.023438 54.757812 159.183594 C 58.503906 161.351562 63.273438 162.4375 69.085938 162.4375 C 74.191406 162.4375 78.683594 161.589844 82.566406 159.902344 C 86.460938 158.207031 89.523438 155.511719 91.78125 151.800781 C 94.035156 148.089844 95.164062 143.304688 95.164062 137.425781 L 95.164062 104.019531 C 95.164062 103.746094 94.945312 103.527344 94.671875 103.527344 Z M 83.378906 103.527344 " fill-opacity="1" fill-rule="nonzero"/></g><path fill="#000000" d="M 156.417969 103.527344 C 156.234375 103.527344 156.0625 103.628906 155.980469 103.792969 L 142.734375 128.796875 C 140.601562 132.914062 139.078125 136.269531 138.148438 138.859375 C 137.996094 139.296875 137.394531 139.304688 137.230469 138.867188 C 136.773438 137.644531 136.21875 136.289062 135.570312 134.800781 C 134.6875 132.761719 133.730469 130.753906 132.726562 128.796875 L 119.691406 103.792969 C 119.609375 103.628906 119.4375 103.527344 119.253906 103.527344 L 107.050781 103.527344 C 106.777344 103.527344 106.558594 103.746094 106.558594 104.019531 L 106.558594 160.695312 C 106.558594 160.96875 106.777344 161.1875 107.050781 161.1875 L 118.351562 161.1875 C 118.625 161.1875 118.84375 160.96875 118.84375 160.695312 L 118.84375 127.902344 C 118.84375 127.363281 119.582031 127.21875 119.792969 127.710938 C 120.550781 129.46875 121.542969 131.558594 122.773438 133.972656 L 132.835938 153.804688 C 132.917969 153.96875 133.089844 154.078125 133.273438 154.078125 L 142.40625 154.078125 C 142.597656 154.078125 142.761719 153.96875 142.851562 153.804688 L 152.734375 133.972656 C 153.964844 131.59375 154.957031 129.515625 155.714844 127.746094 C 155.925781 127.246094 156.664062 127.402344 156.664062 127.9375 L 156.664062 160.695312 C 156.664062 160.96875 156.882812 161.1875 157.15625 161.1875 L 168.449219 161.1875 C 168.722656 161.1875 168.941406 160.96875 168.941406 160.695312 L 168.941406 104.019531 C 168.941406 103.746094 168.722656 103.527344 168.449219 103.527344 Z M 156.417969 103.527344 " fill-opacity="1" fill-rule="nonzero"/><path fill="#000000" d="M 288.269531 139.023438 C 288.089844 138.757812 288.207031 138.402344 288.5 138.285156 C 292.117188 136.851562 294.886719 134.746094 296.800781 131.96875 C 298.816406 129.03125 299.828125 125.550781 299.828125 121.511719 C 299.828125 118.066406 299 115.003906 297.339844 112.296875 C 295.671875 109.597656 293.136719 107.464844 289.730469 105.890625 C 286.320312 104.320312 282.0625 103.539062 276.960938 103.539062 L 258.136719 103.539062 C 257.863281 103.539062 257.644531 103.757812 257.644531 104.03125 L 257.644531 160.707031 C 257.644531 160.980469 257.863281 161.199219 258.136719 161.199219 L 269.4375 161.199219 C 269.710938 161.199219 269.933594 160.980469 269.933594 160.707031 L 269.933594 140.691406 C 269.933594 140.417969 270.152344 140.199219 270.425781 140.199219 L 274.527344 140.199219 C 274.691406 140.199219 274.84375 140.28125 274.9375 140.40625 L 289.117188 160.980469 C 289.210938 161.117188 289.363281 161.1875 289.527344 161.1875 L 303.402344 161.1875 L 303.402344 160.476562 L 288.28125 139.011719 Z M 283.886719 128.621094 C 281.917969 129.988281 279.109375 130.664062 275.472656 130.664062 L 270.425781 130.664062 C 270.152344 130.664062 269.933594 130.445312 269.933594 130.171875 L 269.933594 114.164062 C 269.933594 113.890625 270.152344 113.671875 270.425781 113.671875 L 276.839844 113.671875 C 279.984375 113.671875 282.445312 114.355469 284.207031 115.714844 C 285.957031 117.082031 286.839844 119.132812 286.839844 121.859375 C 286.839844 125.003906 285.855469 127.253906 283.886719 128.621094 Z M 283.886719 128.621094 " fill-opacity="1" fill-rule="nonzero"/><path fill="#000000" d="M 323.40625 150.378906 L 323.40625 137.390625 C 323.40625 137.117188 323.625 136.898438 323.898438 136.898438 L 344.226562 136.898438 C 344.472656 136.898438 344.683594 136.714844 344.71875 136.46875 L 346.03125 127.308594 C 346.078125 127.007812 345.839844 126.746094 345.539062 126.746094 L 323.910156 126.746094 C 323.636719 126.746094 323.417969 126.527344 323.417969 126.253906 L 323.417969 114.238281 C 323.417969 113.964844 323.636719 113.746094 323.910156 113.746094 L 349.175781 113.746094 C 349.449219 113.746094 349.667969 113.527344 349.667969 113.253906 L 349.667969 104.011719 C 349.667969 103.738281 349.449219 103.519531 349.175781 103.519531 L 311.632812 103.519531 C 311.359375 103.519531 311.140625 103.738281 311.140625 104.011719 L 311.140625 160.6875 C 311.140625 160.960938 311.359375 161.179688 311.632812 161.179688 L 349.621094 161.179688 C 349.894531 161.179688 350.113281 160.960938 350.113281 160.6875 L 350.113281 151.355469 C 350.113281 151.082031 349.894531 150.863281 349.621094 150.863281 L 323.910156 150.863281 C 323.636719 150.863281 323.417969 150.644531 323.417969 150.371094 Z M 323.40625 150.378906 " fill-opacity="1" fill-rule="nonzero"/></svg>